
<svg width="116px" height="34px" viewBox="0 0 116 34" version="1.1" xmlns="http://www.w3.org/2000/svg" xmlns:xlink="http://www.w3.org/1999/xlink">
    <g id="Page-1" stroke="none" stroke-width="1" fill="none" fill-rule="evenodd">
        <g id="Desktop" transform="translate(-39.000000, -43.000000)">
            <g id="Header" transform="translate(36.000000, 32.000000)">
                <g id="LOGO">
                    <text id="h-its" font-family="Comfortaa-Bold, Comfortaa" font-size="40" font-weight="bold" letter-spacing="-2" fill="#FFFFFF">
                        <tspan x="0" y="44">h     its</tspan>
                    </text>
                    <g id="iCONO-PEQUEÑO" transform="translate(26.000000, 21.000000)" stroke="#FFFFFF" stroke-width="4">
                        <g id="Group">
                            <path d="M36.2517045,20.3142954 C40.8710185,20.3619615 44.5770713,16.6394819 44.5294052,11.9999045 C44.4817391,7.36032704 40.6984042,3.56056537 36.0790903,3.51289925 C31.4597763,3.46523313 27.7537235,7.18771275 27.8013896,11.8272902" id="Oval-Copy" transform="translate(36.165397, 11.913597) rotate(399.000000) translate(-36.165397, -11.913597) "></path>
                            <path d="M12.7719136,20.3006673 C17.4098213,20.3486579 21.1306843,16.6415147 21.0826936,12.020531 C21.034703,7.39954737 17.2360317,3.61459584 12.598124,3.56660517 C7.96021624,3.5186145 4.23935328,7.22575776 4.28734395,11.8467414" id="Oval-Copy-2" transform="translate(12.685019, 11.933636) rotate(230.000000) translate(-12.685019, -11.933636) "></path>
                            <path d="M18.5,6 C26.4484346,13.9444444 30.781768,18.2777778 31.5,19" id="Line-4" stroke-linecap="round"></path>
                        </g>
                    </g>
                    <g id="iCONO" transform="translate(43.000000, 37.000000)" stroke="#EA7755" stroke-linecap="round" stroke-width="4">
                        <path d="M1.84632034,2.99891657 L1.65685425,5.82842712" id="Line-6" transform="translate(2.121320, 4.121320) rotate(45.000000) translate(-2.121320, -4.121320) "></path>
                        <path d="M1.84632034,0.998916574 L1.65685425,3.82842712" id="Line-6-Copy-2" transform="translate(2.121320, 2.121320) scale(1, -1) rotate(45.000000) translate(-2.121320, -2.121320) "></path>
                    </g>
                    <path d="M55.5,13.5 L55.5,28.5" id="Line-5" stroke="#FFFFFF" stroke-width="4" stroke-linecap="round"></path>
                </g>
            </g>
        </g>
    </g>
</svg>