<?xml version="1.0" encoding="UTF-8"?>
<svg width="72px" height="72px" viewBox="0 0 72 72" version="1.1" xmlns="http://www.w3.org/2000/svg" xmlns:xlink="http://www.w3.org/1999/xlink">
    <!-- Generator: Sketch 52.6 (67491) - http://www.bohemiancoding.com/sketch -->
    <title>Icono 1</title>
    <desc>Created with Sketch.</desc>
    <g id="Page-1" stroke="none" stroke-width="1" fill="none" fill-rule="evenodd">
        <g id="Desktop" transform="translate(-233.000000, -767.000000)">
            <g id="Ventajas" transform="translate(160.000000, 688.000000)">
                <g id="Ventaja-1" transform="translate(0.000000, 63.000000)">
                    <g id="Icono-1" transform="translate(73.000000, 16.000000)">
                        <circle id="Oval-Copy-4" fill="#959595" cx="36" cy="36" r="36"></circle>
                        <path d="M52.4314082,22.6354869 L47.0205122,22.6354869 C45.5768818,18.2101834 41.4078704,15 36.4995269,15 C31.5887673,15 27.4197558,18.2101834 25.9773335,22.6354869 L20.5664374,22.6354869 C17.7383715,22.6354869 15.700376,24.9283029 16.0362164,27.7286243 L18.9283095,51.9056571 C19.2641499,54.7071841 21.8506041,57 24.6786701,57 L48.3215917,57 C51.1484496,57 53.7349038,54.7083895 54.0707442,51.9056571 L56.9640454,27.7286243 C57.2986777,24.9283029 55.2594742,22.6354869 52.4314082,22.6354869 Z M36.5006141,18.28125 C40.9847381,18.28125 44.6349206,21.8138825 44.6349206,26.15625 C44.6349206,30.4986175 40.9847381,34.03125 36.5006141,34.03125 C32.0152619,34.03125 28.3650794,30.4986175 28.3650794,26.15625 C28.3650794,21.8138825 32.0152619,18.28125 36.5006141,18.28125 Z" id="Shape" fill="#FFFFFF" fill-rule="nonzero"></path>
                        <path d="M33.0578892,26.963353 C33.3841422,27.3842515 33.8170138,27.6246124 34.2456207,27.6246124 C34.4833803,27.6246124 34.8416188,27.5509017 35.1955927,27.1951677 C35.5783535,26.8148634 35.6391262,26.426013 35.6220672,26.1696281 C35.5975449,25.7604805 35.3640501,25.3630839 34.9631641,25.0532855 L31.2816229,22.1956621 C30.9553699,21.9403454 30.4617257,21.930731 30.2015763,22.191389 C29.8945146,22.4979826 29.9734124,22.977636 30.2037086,23.2746152 L33.0578892,26.963353 Z" id="Path" fill="#FFFFFF"></path>
                        <text id="13" font-family="ProximaNova-Bold, Proxima Nova" font-size="15" font-weight="bold" fill="#EA7755">
                            <tspan x="28" y="50">13</tspan>
                        </text>
                    </g>
                </g>
            </g>
        </g>
    </g>
</svg>